<svg xmlns="http://www.w3.org/2000/svg" viewBox="0 0 1448.92 378.62"><defs><style>.cls-1{fill:#b03d47;}</style></defs><g id="Capa_2" data-name="Capa 2"><g id="Capa_1-2" data-name="Capa 1"><path class="cls-1" d="M144,90.07a143.1,143.1,0,0,0-84,27.12V0H0v234A143.84,143.84,0,0,0,53.89,346.32q3,2.4,6.11,4.64a143.23,143.23,0,0,0,84,27.11c79.4,0,144-64.61,144-144S223.4,90.07,144,90.07Zm49.83,211.57a84,84,0,1,1-1.78-136.44l0,0a83.93,83.93,0,0,1,1.74,136.42Z"/><path class="cls-1" d="M331.18,378.5V0h60V378.5Z"/><path class="cls-1" d="M662.37,90.5V234.79c0,.77,0,1.53,0,2.3a84,84,0,0,1-167.93-.43c0-.71,0-1.44,0-2.16V90.2h-60V234.79c0,1.32,0,2.63.06,3.94a144,144,0,0,0,287.94-4.23V90.5Zm-181,172.2v-2.25c0,.75,0,1.5,0,2.25Z"/><path class="cls-1" d="M873.36,151.16V237a84.14,84.14,0,0,0,58.19,79.94v61.73a143.1,143.1,0,0,1-58.19-24.78c-2.08-1.48-4.12-3-6.11-4.64A143.81,143.81,0,0,1,813.36,237V151.16H765.55V90.62h47.81V1h60V90.62h58.19v60.54Z"/><path class="cls-1" d="M1261.65,252a144.67,144.67,0,0,0-1.53-45c-12.81-66.37-71.34-116.65-141.39-116.65a143.94,143.94,0,0,0-90.11,256.24,144.72,144.72,0,0,0,17.12,11.84l.1.07a142.07,142.07,0,0,0,18.54,9.19l.14.07A143.93,143.93,0,0,0,1235.89,318l-56.13-26a84.38,84.38,0,0,1-11.2,9.91,83.93,83.93,0,0,1-128.76-38.83,82.13,82.13,0,0,1-3.2-11.09Zm-222.34-45c.43-1.27.9-2.54,1.4-3.77a84,84,0,0,1,124.13-39.07c.65.42,1.3.87,1.94,1.32l0,0A84.29,84.29,0,0,1,1198.16,207Z"/><path class="cls-1" d="M1448.92,90.27v60c-.29,0-.58,0-.87,0s-.68,0-1,0-.73,0-1.09,0-.69,0-1,.06a3,3,0,0,0-.42,0,84.1,84.1,0,0,0-78.57,83.83c0,1.55,0,3.08.13,4.62v139.6h-60.13V234.26a144.13,144.13,0,0,1,143-144Z"/></g></g></svg>