<?xml version="1.0" encoding="utf-8"?>
<!-- Generator: Adobe Illustrator 25.4.1, SVG Export Plug-In . SVG Version: 6.00 Build 0)  -->
<svg version="1.1" id="Capa_1" xmlns="http://www.w3.org/2000/svg" xmlns:xlink="http://www.w3.org/1999/xlink" x="0px" y="0px"
	 viewBox="0 0 24 24" style="enable-background:new 0 0 24 24;" xml:space="preserve">
<style type="text/css">
	.st0{fill:#B03D47;}
</style>
<path class="st0" d="M11.9,5L12,5.1L12.1,5c1.2-1.1,2.7-1.8,4.3-1.8c1.6,0,3.1,0.6,4.3,1.8c1.1,1.1,1.8,2.7,1.8,4.2
	c0,3.2-1.2,4.8-6.5,9l-4,3.1l-4-3.1c-5.3-4.2-6.5-5.7-6.5-9c0-1.6,0.6-3.1,1.8-4.2c1.1-1.1,2.7-1.8,4.3-1.8C9.1,3.2,10.7,3.8,11.9,5
	z"/>
</svg>
