<svg width="40" height="34" viewBox="0 0 40 34" fill="none" xmlns="http://www.w3.org/2000/svg">
<path d="M39.2245 7.20153L16.7947 33.3609C16.718 33.45 16.6235 33.5232 16.517 33.5761C16.4105 33.6289 16.2941 33.6603 16.1748 33.6684C16.0555 33.6764 15.9357 33.661 15.8227 33.623C15.7097 33.585 15.6057 33.5252 15.517 33.4472L0.862366 20.6301C0.774587 20.5533 0.70343 20.4603 0.653051 20.3566C0.602672 20.2528 0.574083 20.1403 0.568954 20.0256C0.563825 19.9109 0.58226 19.7964 0.62318 19.6888C0.664101 19.5811 0.726687 19.4825 0.80728 19.3986L5.58644 14.4262C5.74371 14.2626 5.96022 14.1647 6.1903 14.1533C6.42037 14.1418 6.64603 14.2177 6.81966 14.3649L14.9884 21.289L33.4191 0.929399C33.5036 0.836086 33.6078 0.761601 33.7247 0.711035C33.8415 0.660469 33.9682 0.635013 34.096 0.636407C34.2239 0.637801 34.35 0.666011 34.4656 0.719111C34.5813 0.772211 34.6837 0.848949 34.7661 0.94408L39.2245 6.0927C39.3584 6.24813 39.4318 6.44439 39.4318 6.64712C39.4318 6.84984 39.3584 7.0461 39.2245 7.20153Z" fill="white"/>
</svg>
